ffmpeg started on 2025-07-16 at 16:16:00
Report written to "D:\Convert\FFMetrics\reports\ssim_report-6.txt"
Log level: 32
Command line:
ffmpeg -hide_banner -nostdin -i "G:\\\xc0\xed\xe8\xec\xe5\\Shiza\\\xcb\xe5\xe3\xe5\xed\xe4\xe0 \xee \xc3\xf0\xe0\xed\xea\xf0\xe5\xf1\xf2\xe5\\[SHIZA Project] Grancrest Senki TV [08] [nDrOiDze & Lizaveta]_HEVC.mkv" -i "G:\\\xc0\xed\xe8\xec\xe5\\Shiza\\\xcb\xe5\xe3\xe5\xed\xe4\xe0 \xee \xc3\xf0\xe0\xed\xea\xf0\xe5\xf1\xf2\xe5\\[SHIZA Project] Grancrest Senki TV [08] [nDrOiDze & Lizaveta].mkv" -lavfi "[0:v]settb=AVTB,setpts=PTS-STARTPTS,format=pix_fmts=yuv420p10,fps=24000/1001,scale=1280:720:flags=bicubic[main];[1:v]settb=AVTB,setpts=PTS-STARTPTS,format=pix_fmts=yuv420p,fps=24000/1001,scale=1280:720:flags=bicubic[ref];[main][ref]ssim=eof_action=endall:stats_file='D\\:/Convert/FFMetrics/logs/ssim_logfile-6.txt'" -f null -
Input #0, matroska,webm, from 'G:\Аниме\Shiza\Легенда о Гранкресте\[SHIZA Project] Grancrest Senki TV [08] [nDrOiDze & Lizaveta]_HEVC.mkv':
  Metadata:
    ENCODER         : Lavf61.7.100
  Duration: 00:23:40.16, start: -0.001000, bitrate: 582 kb/s
  Stream #0:0: Video: hevc (Main 10), yuv420p10le(tv, bt709, progressive), 1280x720 [SAR 1:1 DAR 16:9], 23.81 fps, 23.81 tbr, 1k tbn (default)
      Metadata:
        title           : [SHIZA Project] Grancrest Senki TV [WEBRip]
        ENCODER         : Lavc61.19.100 libx265
        BPS             : 384887
        DURATION        : 00:23:40.146000000
        NUMBER_OF_FRAMES: 34050
        NUMBER_OF_BYTES : 68324547
        _STATISTICS_WRITING_APP: mkvpropedit v66.0.0 ('Josie') 64-bit
        _STATISTICS_WRITING_DATE_UTC: 2025-07-14 09:02:02
        _STATISTICS_TAGS: BPS DURATION NUMBER_OF_FRAMES NUMBER_OF_BYTES
  Stream #0:1(rus): Audio: aac (LC), 48000 Hz, stereo, fltp (default)
      Metadata:
        title           : nDrOiDze & Lizaveta
        ENCODER         : Lavc61.19.100 aac
        BPS             : 193649
        DURATION        : 00:23:40.117000000
        NUMBER_OF_FRAMES: 66569
        NUMBER_OF_BYTES : 34375678
        _STATISTICS_WRITING_APP: mkvpropedit v66.0.0 ('Josie') 64-bit
        _STATISTICS_WRITING_DATE_UTC: 2025-07-14 09:02:02
        _STATISTICS_TAGS: BPS DURATION NUMBER_OF_FRAMES NUMBER_OF_BYTES
Input #1, matroska,webm, from 'G:\Аниме\Shiza\Легенда о Гранкресте\[SHIZA Project] Grancrest Senki TV [08] [nDrOiDze & Lizaveta].mkv':
  Metadata:
    encoder         : libebml v1.3.5 + libmatroska v1.4.5
    creation_time   : 2018-02-26T18:30:32.000000Z
  Duration: 00:23:40.14, start: 0.000000, bitrate: 1972 kb/s
  Stream #1:0: Video: h264 (High), yuv420p(progressive), 1280x720 [SAR 1:1 DAR 16:9], 23.81 fps, 23.81 tbr, 1k tbn (default)
      Metadata:
        title           : [SHIZA Project] Grancrest Senki TV [WEBRip]
        BPS             : 1776417
        BPS-eng         : 1776417
        DURATION        : 00:23:40.128000000
        DURATION-eng    : 00:23:40.128000000
        NUMBER_OF_FRAMES: 34050
        NUMBER_OF_FRAMES-eng: 34050
        NUMBER_OF_BYTES : 315342467
        NUMBER_OF_BYTES-eng: 315342467
        _STATISTICS_WRITING_APP: mkvmerge v15.0.0 ('Duel with the Devil') 64-bit
        _STATISTICS_WRITING_APP-eng: mkvmerge v15.0.0 ('Duel with the Devil') 64-bit
        _STATISTICS_WRITING_DATE_UTC: 2018-02-26 18:30:32
        _STATISTICS_WRITING_DATE_UTC-eng: 2018-02-26 18:30:32
        _STATISTICS_TAGS: BPS DURATION NUMBER_OF_FRAMES NUMBER_OF_BYTES
        _STATISTICS_TAGS-eng: BPS DURATION NUMBER_OF_FRAMES NUMBER_OF_BYTES
  Stream #1:1(rus): Audio: aac (LC), 48000 Hz, stereo, fltp (default)
      Metadata:
        title           : nDrOiDze & Lizaveta
        BPS             : 192001
        BPS-eng         : 192001
        DURATION        : 00:23:40.117000000
        DURATION-eng    : 00:23:40.117000000
        NUMBER_OF_FRAMES: 66568
        NUMBER_OF_FRAMES-eng: 66568
        NUMBER_OF_BYTES : 34082988
        NUMBER_OF_BYTES-eng: 34082988
        _STATISTICS_WRITING_APP: mkvmerge v15.0.0 ('Duel with the Devil') 64-bit
        _STATISTICS_WRITING_APP-eng: mkvmerge v15.0.0 ('Duel with the Devil') 64-bit
        _STATISTICS_WRITING_DATE_UTC: 2018-02-26 18:30:32
        _STATISTICS_WRITING_DATE_UTC-eng: 2018-02-26 18:30:32
        _STATISTICS_TAGS: BPS DURATION NUMBER_OF_FRAMES NUMBER_OF_BYTES
        _STATISTICS_TAGS-eng: BPS DURATION NUMBER_OF_FRAMES NUMBER_OF_BYTES
  Stream #1:2: Attachment: ttf
      Metadata:
        filename        : OpenSans-Semibold.ttf
        mimetype        : application/x-truetype-font
Stream mapping:
  Stream #0:0 (hevc) -> settb:default
  Stream #1:0 (h264) -> settb:default
  ssim:default -> Stream #0:0 (wrapped_avframe)
  Stream #0:1 -> #0:1 (aac (native) -> pcm_s16le (native))
[swscaler @ 0000019690d73040] No accelerated colorspace conversion found from yuv420p to bgr48le.
[swscaler @ 0000019690ed4a80] No accelerated colorspace conversion found from yuv420p to bgr48le.
[swscaler @ 0000019690ff3440] No accelerated colorspace conversion found from yuv420p to bgr48le.
[swscaler @ 0000019691175ec0] No accelerated colorspace conversion found from yuv420p to bgr48le.
[swscaler @ 0000019691256d00] No accelerated colorspace conversion found from yuv420p to bgr48le.
[swscaler @ 000001969143f380] No accelerated colorspace conversion found from yuv420p to bgr48le.
[swscaler @ 00000196914d9b40] No accelerated colorspace conversion found from yuv420p to bgr48le.
[swscaler @ 0000019691602ec0] No accelerated colorspace conversion found from yuv420p to bgr48le.
[swscaler @ 0000019691746040] No accelerated colorspace conversion found from yuv420p to bgr48le.
[swscaler @ 00000196918bbf40] No accelerated colorspace conversion found from yuv420p to bgr48le.
[swscaler @ 000001969197d040] No accelerated colorspace conversion found from yuv420p to bgr48le.
[swscaler @ 00000196919e6040] No accelerated colorspace conversion found from yuv420p to bgr48le.
[swscaler @ 0000019691a48040] No accelerated colorspace conversion found from yuv420p to bgr48le.
[swscaler @ 0000019691ad8040] No accelerated colorspace conversion found from yuv420p to bgr48le.
[swscaler @ 0000019691b35040] No accelerated colorspace conversion found from yuv420p to bgr48le.
[swscaler @ 0000019691b5f000] No accelerated colorspace conversion found from yuv420p to bgr48le.
Output #0, null, to 'pipe:':
  Metadata:
    encoder         : Lavf61.7.100
  Stream #0:0: Video: wrapped_avframe, yuv420p10le(tv, bt709, progressive), 1280x720 [SAR 1:1 DAR 16:9], q=2-31, 200 kb/s, 23.98 fps, 23.98 tbn
      Metadata:
        encoder         : Lavc61.19.100 wrapped_avframe
  Stream #0:1(rus): Audio: pcm_s16le, 48000 Hz, stereo, s16, 1536 kb/s (default)
      Metadata:
        title           : nDrOiDze & Lizaveta
        _STATISTICS_TAGS: BPS DURATION NUMBER_OF_FRAMES NUMBER_OF_BYTES
        BPS             : 193649
        DURATION        : 00:23:40.117000000
        NUMBER_OF_FRAMES: 66569
        NUMBER_OF_BYTES : 34375678
        _STATISTICS_WRITING_APP: mkvpropedit v66.0.0 ('Josie') 64-bit
        _STATISTICS_WRITING_DATE_UTC: 2025-07-14 09:02:02
        encoder         : Lavc61.19.100 pcm_s16le
frame=   78 fps=0.0 q=-0.0 size=N/A time=00:00:03.25 bitrate=N/A speed=6.24x    frame=  172 fps=168 q=-0.0 size=N/A time=00:00:07.17 bitrate=N/A speed=6.99x    frame=  280 fps=181 q=-0.0 size=N/A time=00:00:11.67 bitrate=N/A speed=7.54x    frame=  370 fps=180 q=-0.0 size=N/A time=00:00:15.43 bitrate=N/A speed= 7.5x    frame=  472 fps=183 q=-0.0 size=N/A time=00:00:19.68 bitrate=N/A speed=7.63x    frame=  570 fps=185 q=-0.0 size=N/A time=00:00:23.77 bitrate=N/A speed= 7.7x    frame=  667 fps=185 q=-0.0 size=N/A time=00:00:27.81 bitrate=N/A speed= 7.7x    frame=  762 fps=185 q=-0.0 size=N/A time=00:00:31.78 bitrate=N/A speed=7.71x    frame=  846 fps=182 q=-0.0 size=N/A time=00:00:35.28 bitrate=N/A speed=7.59x    frame=  949 fps=184 q=-0.0 size=N/A time=00:00:39.58 bitrate=N/A speed=7.68x    frame= 1043 fps=184 q=-0.0 size=N/A time=00:00:43.50 bitrate=N/A speed=7.66x    frame= 1153 fps=186 q=-0.0 size=N/A time=00:00:48.08 bitrate=N/A speed=7.75x    frame= 1249 fps=186 q=-0.0 size=N/A time=00:00:52.09 bitrate=N/A speed=7.76x    frame= 1343 fps=186 q=-0.0 size=N/A time=00:00:56.01 bitrate=N/A speed=7.75x    frame= 1448 fps=187 q=-0.0 size=N/A time=00:01:00.39 bitrate=N/A speed= 7.8x    frame= 1547 fps=187 q=-0.0 size=N/A time=00:01:04.52 bitrate=N/A speed=7.81x    frame= 1648 fps=188 q=-0.0 size=N/A time=00:01:08.73 bitrate=N/A speed=7.82x    frame= 1742 fps=187 q=-0.0 size=N/A time=00:01:12.65 bitrate=N/A speed=7.82x    frame= 1833 fps=187 q=-0.0 size=N/A time=00:01:16.45 bitrate=N/A speed=7.79x    frame= 1936 fps=187 q=-0.0 size=N/A time=00:01:20.74 bitrate=N/A speed=7.82x    frame= 2029 fps=187 q=-0.0 size=N/A time=00:01:24.62 bitrate=N/A speed= 7.8x    frame= 2134 fps=188 q=-0.0 size=N/A time=00:01:29.00 bitrate=N/A speed=7.84x    frame= 2224 fps=187 q=-0.0 size=N/A time=00:01:32.75 bitrate=N/A speed=7.81x    frame= 2323 fps=188 q=-0.0 size=N/A time=00:01:36.88 bitrate=N/A speed=7.82x    frame= 2434 fps=189 q=-0.0 size=N/A time=00:01:41.51 bitrate=N/A speed=7.87x    frame= 2524 fps=188 q=-0.0 size=N/A time=00:01:45.27 bitrate=N/A speed=7.85x    frame= 2629 fps=189 q=-0.0 size=N/A time=00:01:49.65 bitrate=N/A speed=7.87x    frame= 2725 fps=189 q=-0.0 size=N/A time=00:01:53.65 bitrate=N/A speed=7.87x    frame= 2825 fps=189 q=-0.0 size=N/A time=00:01:57.82 bitrate=N/A speed=7.87x    frame= 2923 fps=189 q=-0.0 size=N/A time=00:02:01.91 bitrate=N/A speed=7.87x    frame= 3011 fps=188 q=-0.0 size=N/A time=00:02:05.58 bitrate=N/A speed=7.85x    frame= 3118 fps=189 q=-0.0 size=N/A time=00:02:10.04 bitrate=N/A speed=7.88x    frame= 3201 fps=188 q=-0.0 size=N/A time=00:02:13.50 bitrate=N/A speed=7.84x    frame= 3308 fps=188 q=-0.0 size=N/A time=00:02:17.97 bitrate=N/A speed=7.86x    frame= 3407 fps=189 q=-0.0 size=N/A time=00:02:22.10 bitrate=N/A speed=7.87x    frame= 3496 fps=188 q=-0.0 size=N/A time=00:02:25.81 bitrate=N/A speed=7.85x    frame= 3602 fps=189 q=-0.0 size=N/A time=00:02:30.23 bitrate=N/A speed=7.87x    frame= 3699 fps=189 q=-0.0 size=N/A time=00:02:34.27 bitrate=N/A speed=7.87x    frame= 3798 fps=189 q=-0.0 size=N/A time=00:02:38.40 bitrate=N/A speed=7.87x    frame= 3888 fps=188 q=-0.0 size=N/A time=00:02:42.16 bitrate=N/A speed=7.86x    frame= 3991 fps=189 q=-0.0 size=N/A time=00:02:46.45 bitrate=N/A speed=7.87x    frame= 4086 fps=189 q=-0.0 size=N/A time=00:02:50.42 bitrate=N/A speed=7.86x    frame= 4185 fps=189 q=-0.0 size=N/A time=00:02:54.54 bitrate=N/A speed=7.87x    frame= 4287 fps=189 q=-0.0 size=N/A time=00:02:58.80 bitrate=N/A speed=7.88x    frame= 4389 fps=189 q=-0.0 size=N/A time=00:03:03.05 bitrate=N/A speed=7.88x    frame= 4475 fps=188 q=-0.0 size=N/A time=00:03:06.64 bitrate=N/A speed=7.86x    frame= 4576 fps=189 q=-0.0 size=N/A time=00:03:10.85 bitrate=N/A speed=7.86x    frame= 4683 fps=189 q=-0.0 size=N/A time=00:03:15.32 bitrate=N/A speed=7.88x    frame= 4784 fps=189 q=-0.0 size=N/A time=00:03:19.53 bitrate=N/A speed=7.89x    frame= 4881 fps=189 q=-0.0 size=N/A time=00:03:23.57 bitrate=N/A speed=7.89x    frame= 4984 fps=189 q=-0.0 size=N/A time=00:03:27.87 bitrate=N/A speed=7.89x    frame= 5083 fps=189 q=-0.0 size=N/A time=00:03:32.00 bitrate=N/A speed= 7.9x    frame= 5181 fps=189 q=-0.0 size=N/A time=00:03:36.09 bitrate=N/A speed= 7.9x    frame= 5264 fps=189 q=-0.0 size=N/A time=00:03:39.55 bitrate=N/A speed=7.88x    frame= 5378 fps=189 q=-0.0 size=N/A time=00:03:44.30 bitrate=N/A speed= 7.9x    frame= 5478 fps=190 q=-0.0 size=N/A time=00:03:48.47 bitrate=N/A speed= 7.9x    frame= 5575 fps=189 q=-0.0 size=N/A time=00:03:52.52 bitrate=N/A speed= 7.9x    frame= 5675 fps=189 q=-0.0 size=N/A time=00:03:56.69 bitrate=N/A speed= 7.9x    frame= 5769 fps=189 q=-0.0 size=N/A time=00:04:00.61 bitrate=N/A speed= 7.9x    frame= 5865 fps=189 q=-0.0 size=N/A time=00:04:04.61 bitrate=N/A speed=7.89x    frame= 5965 fps=189 q=-0.0 size=N/A time=00:04:08.79 bitrate=N/A speed= 7.9x    frame= 6054 fps=189 q=-0.0 size=N/A time=00:04:12.50 bitrate=N/A speed=7.89x    frame= 6161 fps=189 q=-0.0 size=N/A time=00:04:16.96 bitrate=N/A speed= 7.9x    frame= 6263 fps=190 q=-0.0 size=N/A time=00:04:21.21 bitrate=N/A speed= 7.9x    frame= 6351 fps=189 q=-0.0 size=N/A time=00:04:24.88 bitrate=N/A speed=7.89x    frame= 6450 fps=189 q=-0.0 size=N/A time=00:04:29.01 bitrate=N/A speed=7.89x    frame= 6547 fps=189 q=-0.0 size=N/A time=00:04:33.06 bitrate=N/A speed= 7.9x    frame= 6657 fps=190 q=-0.0 size=N/A time=00:04:37.65 bitrate=N/A speed=7.91x    frame= 6754 fps=190 q=-0.0 size=N/A time=00:04:41.69 bitrate=N/A speed=7.91x    frame= 6843 fps=189 q=-0.0 size=N/A time=00:04:45.41 bitrate=N/A speed= 7.9x    frame= 6951 fps=190 q=-0.0 size=N/A time=00:04:49.91 bitrate=N/A speed=7.91x    frame= 7050 fps=190 q=-0.0 size=N/A time=00:04:54.04 bitrate=N/A speed=7.91x    frame= 7134 fps=189 q=-0.0 size=N/A time=00:04:57.54 bitrate=N/A speed=7.89x    frame= 7247 fps=190 q=-0.0 size=N/A time=00:05:02.26 bitrate=N/A speed=7.91x    frame= 7344 fps=190 q=-0.0 size=N/A time=00:05:06.30 bitrate=N/A speed=7.91x    frame= 7440 fps=190 q=-0.0 size=N/A time=00:05:10.31 bitrate=N/A speed=7.91x    frame= 7543 fps=190 q=-0.0 size=N/A time=00:05:14.60 bitrate=N/A speed=7.91x    frame= 7642 fps=190 q=-0.0 size=N/A time=00:05:18.73 bitrate=N/A speed=7.92x    frame= 7741 fps=190 q=-0.0 size=N/A time=00:05:22.86 bitrate=N/A speed=7.92x    frame= 7836 fps=190 q=-0.0 size=N/A time=00:05:26.82 bitrate=N/A speed=7.91x    frame= 7936 fps=190 q=-0.0 size=N/A time=00:05:30.99 bitrate=N/A speed=7.92x    frame= 8033 fps=190 q=-0.0 size=N/A time=00:05:35.04 bitrate=N/A speed=7.92x    frame= 8126 fps=190 q=-0.0 size=N/A time=00:05:38.92 bitrate=N/A speed=7.91x    frame= 8228 fps=190 q=-0.0 size=N/A time=00:05:43.17 bitrate=N/A speed=7.92x    frame= 8326 fps=190 q=-0.0 size=N/A time=00:05:47.26 bitrate=N/A speed=7.91x    frame= 8424 fps=190 q=-0.0 size=N/A time=00:05:51.35 bitrate=N/A speed=7.92x    frame= 8523 fps=190 q=-0.0 size=N/A time=00:05:55.48 bitrate=N/A speed=7.92x    frame= 8615 fps=190 q=-0.0 size=N/A time=00:05:59.31 bitrate=N/A speed=7.91x    frame= 8717 fps=190 q=-0.0 size=N/A time=00:06:03.57 bitrate=N/A speed=7.92x    frame= 8815 fps=190 q=-0.0 size=N/A time=00:06:07.65 bitrate=N/A speed=7.91x    frame= 8907 fps=190 q=-0.0 size=N/A time=00:06:11.49 bitrate=N/A speed=7.91x    frame= 8994 fps=189 q=-0.0 size=N/A time=00:06:15.12 bitrate=N/A speed= 7.9x    frame= 9112 fps=190 q=-0.0 size=N/A time=00:06:20.04 bitrate=N/A speed=7.92x    frame= 9201 fps=190 q=-0.0 size=N/A time=00:06:23.75 bitrate=N/A speed=7.91x    frame= 9306 fps=190 q=-0.0 size=N/A time=00:06:28.13 bitrate=N/A speed=7.92x    frame= 9409 fps=190 q=-0.0 size=N/A time=00:06:32.43 bitrate=N/A speed=7.92x    frame= 9508 fps=190 q=-0.0 size=N/A time=00:06:36.56 bitrate=N/A speed=7.92x    frame= 9605 fps=190 q=-0.0 size=N/A time=00:06:40.60 bitrate=N/A speed=7.92x    frame= 9696 fps=190 q=-0.0 size=N/A time=00:06:44.40 bitrate=N/A speed=7.91x    frame= 9805 fps=190 q=-0.0 size=N/A time=00:06:48.95 bitrate=N/A speed=7.92x    frame= 9898 fps=190 q=-0.0 size=N/A time=00:06:52.82 bitrate=N/A speed=7.92x    frame=10002 fps=190 q=-0.0 size=N/A time=00:06:57.16 bitrate=N/A speed=7.92x    frame=10098 fps=190 q=-0.0 size=N/A time=00:07:01.17 bitrate=N/A speed=7.92x    frame=10183 fps=190 q=-0.0 size=N/A time=00:07:04.71 bitrate=N/A speed=7.91x    frame=10288 fps=190 q=-0.0 size=N/A time=00:07:09.09 bitrate=N/A speed=7.92x    frame=10392 fps=190 q=-0.0 size=N/A time=00:07:13.43 bitrate=N/A speed=7.92x    frame=10494 fps=190 q=-0.0 size=N/A time=00:07:17.68 bitrate=N/A speed=7.92x    frame=10594 fps=190 q=-0.0 size=N/A time=00:07:21.85 bitrate=N/A speed=7.92x    frame=10686 fps=190 q=-0.0 size=N/A time=00:07:25.69 bitrate=N/A speed=7.92x    frame=10791 fps=190 q=-0.0 size=N/A time=00:07:30.07 bitrate=N/A speed=7.93x    frame=10885 fps=190 q=-0.0 size=N/A time=00:07:33.99 bitrate=N/A speed=7.92x    frame=10984 fps=190 q=-0.0 size=N/A time=00:07:38.12 bitrate=N/A speed=7.93x    frame=11090 fps=190 q=-0.0 size=N/A time=00:07:42.54 bitrate=N/A speed=7.93x    frame=11182 fps=190 q=-0.0 size=N/A time=00:07:46.38 bitrate=N/A speed=7.93x    frame=11290 fps=190 q=-0.0 size=N/A time=00:07:50.88 bitrate=N/A speed=7.93x    frame=11382 fps=190 q=-0.0 size=N/A time=00:07:54.72 bitrate=N/A speed=7.93x    frame=11488 fps=190 q=-0.0 size=N/A time=00:07:59.14 bitrate=N/A speed=7.93x    frame=11588 fps=190 q=-0.0 size=N/A time=00:08:03.31 bitrate=N/A speed=7.94x    frame=11685 fps=190 q=-0.0 size=N/A time=00:08:07.36 bitrate=N/A speed=7.94x    frame=11786 fps=190 q=-0.0 size=N/A time=00:08:11.57 bitrate=N/A speed=7.94x    frame=11881 fps=190 q=-0.0 size=N/A time=00:08:15.53 bitrate=N/A speed=7.94x    frame=11983 fps=190 q=-0.0 size=N/A time=00:08:19.79 bitrate=N/A speed=7.94x    frame=12081 fps=190 q=-0.0 size=N/A time=00:08:23.87 bitrate=N/A speed=7.94x    frame=12182 fps=190 q=-0.0 size=N/A time=00:08:28.09 bitrate=N/A speed=7.94x    frame=12283 fps=190 q=-0.0 size=N/A time=00:08:32.30 bitrate=N/A speed=7.94x    frame=12381 fps=190 q=-0.0 size=N/A time=00:08:36.39 bitrate=N/A speed=7.94x    frame=12468 fps=190 q=-0.0 size=N/A time=00:08:40.01 bitrate=N/A speed=7.93x    frame=12580 fps=190 q=-0.0 size=N/A time=00:08:44.69 bitrate=N/A speed=7.94x    frame=12672 fps=190 q=-0.0 size=N/A time=00:08:48.52 bitrate=N/A speed=7.94x    frame=12779 fps=190 q=-0.0 size=N/A time=00:08:52.99 bitrate=N/A speed=7.94x    frame=12877 fps=190 q=-0.0 size=N/A time=00:08:57.07 bitrate=N/A speed=7.94x    frame=12968 fps=190 q=-0.0 size=N/A time=00:09:00.87 bitrate=N/A speed=7.94x    frame=13064 fps=190 q=-0.0 size=N/A time=00:09:04.87 bitrate=N/A speed=7.93x    frame=13168 fps=190 q=-0.0 size=N/A time=00:09:09.21 bitrate=N/A speed=7.94x    frame=13271 fps=190 q=-0.0 size=N/A time=00:09:13.51 bitrate=N/A speed=7.94x    frame=13374 fps=190 q=-0.0 size=N/A time=00:09:17.80 bitrate=N/A speed=7.94x    frame=13470 fps=190 q=-0.0 size=N/A time=00:09:21.81 bitrate=N/A speed=7.94x    frame=13567 fps=190 q=-0.0 size=N/A time=00:09:25.85 bitrate=N/A speed=7.94x    frame=13666 fps=190 q=-0.0 size=N/A time=00:09:29.98 bitrate=N/A speed=7.94x    frame=13764 fps=190 q=-0.0 size=N/A time=00:09:34.07 bitrate=N/A speed=7.94x    frame=13864 fps=190 q=-0.0 size=N/A time=00:09:38.24 bitrate=N/A speed=7.94x    frame=13952 fps=190 q=-0.0 size=N/A time=00:09:41.91 bitrate=N/A speed=7.94x    frame=14064 fps=190 q=-0.0 size=N/A time=00:09:46.58 bitrate=N/A speed=7.95x    frame=14154 fps=190 q=-0.0 size=N/A time=00:09:50.33 bitrate=N/A speed=7.94x    frame=14253 fps=190 q=-0.0 size=N/A time=00:09:54.46 bitrate=N/A speed=7.94x    frame=14354 fps=190 q=-0.0 size=N/A time=00:09:58.68 bitrate=N/A speed=7.94x    frame=14457 fps=191 q=-0.0 size=N/A time=00:10:02.97 bitrate=N/A speed=7.95x    frame=14554 fps=190 q=-0.0 size=N/A time=00:10:07.02 bitrate=N/A speed=7.94x    frame=14650 fps=190 q=-0.0 size=N/A time=00:10:11.02 bitrate=N/A speed=7.94x    frame=14746 fps=190 q=-0.0 size=N/A time=00:10:15.03 bitrate=N/A speed=7.94x    frame=14843 fps=190 q=-0.0 size=N/A time=00:10:19.07 bitrate=N/A speed=7.94x    frame=14944 fps=190 q=-0.0 size=N/A time=00:10:23.28 bitrate=N/A speed=7.94x    frame=15041 fps=190 q=-0.0 size=N/A time=00:10:27.33 bitrate=N/A speed=7.94x    frame=15142 fps=190 q=-0.0 size=N/A time=00:10:31.54 bitrate=N/A speed=7.94x    frame=15232 fps=190 q=-0.0 size=N/A time=00:10:35.30 bitrate=N/A speed=7.94x    frame=15341 fps=190 q=-0.0 size=N/A time=00:10:39.84 bitrate=N/A speed=7.94x    frame=15432 fps=190 q=-0.0 size=N/A time=00:10:43.64 bitrate=N/A speed=7.94x    frame=15535 fps=190 q=-0.0 size=N/A time=00:10:47.93 bitrate=N/A speed=7.94x    frame=15636 fps=191 q=-0.0 size=N/A time=00:10:52.15 bitrate=N/A speed=7.95x    frame=15721 fps=190 q=-0.0 size=N/A time=00:10:55.69 bitrate=N/A speed=7.94x    frame=15832 fps=191 q=-0.0 size=N/A time=00:11:00.32 bitrate=N/A speed=7.95x    frame=15925 fps=190 q=-0.0 size=N/A time=00:11:04.20 bitrate=N/A speed=7.94x    frame=16029 fps=191 q=-0.0 size=N/A time=00:11:08.54 bitrate=N/A speed=7.95x    frame=16128 fps=191 q=-0.0 size=N/A time=00:11:12.67 bitrate=N/A speed=7.95x    frame=16222 fps=190 q=-0.0 size=N/A time=00:11:16.59 bitrate=N/A speed=7.94x    frame=16315 fps=190 q=-0.0 size=N/A time=00:11:20.47 bitrate=N/A speed=7.94x    frame=16422 fps=191 q=-0.0 size=N/A time=00:11:24.93 bitrate=N/A speed=7.95x    frame=16521 fps=191 q=-0.0 size=N/A time=00:11:29.06 bitrate=N/A speed=7.95x    frame=16618 fps=191 q=-0.0 size=N/A time=00:11:33.10 bitrate=N/A speed=7.95x    frame=16717 fps=191 q=-0.0 size=N/A time=00:11:37.23 bitrate=N/A speed=7.95x    frame=16817 fps=191 q=-0.0 size=N/A time=00:11:41.40 bitrate=N/A speed=7.95x    frame=16915 fps=191 q=-0.0 size=N/A time=00:11:45.49 bitrate=N/A speed=7.95x    frame=17009 fps=190 q=-0.0 size=N/A time=00:11:49.41 bitrate=N/A speed=7.94x    frame=17105 fps=190 q=-0.0 size=N/A time=00:11:53.42 bitrate=N/A speed=7.94x    frame=17210 fps=190 q=-0.0 size=N/A time=00:11:57.80 bitrate=N/A speed=7.95x    frame=17312 fps=191 q=-0.0 size=N/A time=00:12:02.05 bitrate=N/A speed=7.95x    frame=17412 fps=191 q=-0.0 size=N/A time=00:12:06.22 bitrate=N/A speed=7.95x    frame=17508 fps=191 q=-0.0 size=N/A time=00:12:10.22 bitrate=N/A speed=7.95x    frame=17608 fps=191 q=-0.0 size=N/A time=00:12:14.40 bitrate=N/A speed=7.95x    frame=17707 fps=191 q=-0.0 size=N/A time=00:12:18.52 bitrate=N/A speed=7.95x    frame=17804 fps=191 q=-0.0 size=N/A time=00:12:22.57 bitrate=N/A speed=7.95x    frame=17897 fps=190 q=-0.0 size=N/A time=00:12:26.45 bitrate=N/A speed=7.94x    frame=18001 fps=191 q=-0.0 size=N/A time=00:12:30.79 bitrate=N/A speed=7.95x    frame=18093 fps=190 q=-0.0 size=N/A time=00:12:34.62 bitrate=N/A speed=7.94x    frame=18177 fps=190 q=-0.0 size=N/A time=00:12:38.13 bitrate=N/A speed=7.94x    frame=18280 fps=190 q=-0.0 size=N/A time=00:12:42.42 bitrate=N/A speed=7.94x    frame=18383 fps=190 q=-0.0 size=N/A time=00:12:46.72 bitrate=N/A speed=7.94x    frame=18477 fps=190 q=-0.0 size=N/A time=00:12:50.64 bitrate=N/A speed=7.94x    frame=18577 fps=190 q=-0.0 size=N/A time=00:12:54.81 bitrate=N/A speed=7.94x    frame=18674 fps=190 q=-0.0 size=N/A time=00:12:58.86 bitrate=N/A speed=7.94x    frame=18772 fps=190 q=-0.0 size=N/A time=00:13:02.94 bitrate=N/A speed=7.94x    frame=18865 fps=190 q=-0.0 size=N/A time=00:13:06.82 bitrate=N/A speed=7.94x    frame=18969 fps=190 q=-0.0 size=N/A time=00:13:11.16 bitrate=N/A speed=7.94x    frame=19054 fps=190 q=-0.0 size=N/A time=00:13:14.71 bitrate=N/A speed=7.94x    frame=19167 fps=190 q=-0.0 size=N/A time=00:13:19.42 bitrate=N/A speed=7.94x    frame=19264 fps=190 q=-0.0 size=N/A time=00:13:23.46 bitrate=N/A speed=7.94x    frame=19364 fps=190 q=-0.0 size=N/A time=00:13:27.64 bitrate=N/A speed=7.94x    frame=19462 fps=190 q=-0.0 size=N/A time=00:13:31.72 bitrate=N/A speed=7.94x    frame=19561 fps=190 q=-0.0 size=N/A time=00:13:35.85 bitrate=N/A speed=7.94x    frame=19655 fps=190 q=-0.0 size=N/A time=00:13:39.77 bitrate=N/A speed=7.94x    frame=19756 fps=190 q=-0.0 size=N/A time=00:13:43.98 bitrate=N/A speed=7.94x    frame=19853 fps=190 q=-0.0 size=N/A time=00:13:48.03 bitrate=N/A speed=7.94x    frame=19951 fps=190 q=-0.0 size=N/A time=00:13:52.12 bitrate=N/A speed=7.94x    frame=20050 fps=190 q=-0.0 size=N/A time=00:13:56.25 bitrate=N/A speed=7.94x    frame=20152 fps=190 q=-0.0 size=N/A time=00:14:00.50 bitrate=N/A speed=7.94x    frame=20249 fps=190 q=-0.0 size=N/A time=00:14:04.55 bitrate=N/A speed=7.94x    frame=20349 fps=190 q=-0.0 size=N/A time=00:14:08.72 bitrate=N/A speed=7.94x    frame=20442 fps=190 q=-0.0 size=N/A time=00:14:12.60 bitrate=N/A speed=7.94x    frame=20549 fps=190 q=-0.0 size=N/A time=00:14:17.06 bitrate=N/A speed=7.94x    frame=20644 fps=190 q=-0.0 size=N/A time=00:14:21.02 bitrate=N/A speed=7.94x    frame=20745 fps=190 q=-0.0 size=N/A time=00:14:25.23 bitrate=N/A speed=7.94x    frame=20842 fps=190 q=-0.0 size=N/A time=00:14:29.28 bitrate=N/A speed=7.94x    frame=20943 fps=191 q=-0.0 size=N/A time=00:14:33.49 bitrate=N/A speed=7.95x    frame=21042 fps=190 q=-0.0 size=N/A time=00:14:37.62 bitrate=N/A speed=7.95x    frame=21141 fps=191 q=-0.0 size=N/A time=00:14:41.75 bitrate=N/A speed=7.95x    frame=21238 fps=191 q=-0.0 size=N/A time=00:14:45.80 bitrate=N/A speed=7.95x    frame=21334 fps=190 q=-0.0 size=N/A time=00:14:49.80 bitrate=N/A speed=7.94x    frame=21428 fps=190 q=-0.0 size=N/A time=00:14:53.72 bitrate=N/A speed=7.94x    frame=21526 fps=190 q=-0.0 size=N/A time=00:14:57.81 bitrate=N/A speed=7.94x    frame=21624 fps=190 q=-0.0 size=N/A time=00:15:01.90 bitrate=N/A speed=7.94x    frame=21722 fps=190 q=-0.0 size=N/A time=00:15:05.98 bitrate=N/A speed=7.94x    frame=21830 fps=191 q=-0.0 size=N/A time=00:15:10.49 bitrate=N/A speed=7.95x    frame=21925 fps=190 q=-0.0 size=N/A time=00:15:14.45 bitrate=N/A speed=7.95x    frame=22024 fps=190 q=-0.0 size=N/A time=00:15:18.58 bitrate=N/A speed=7.95x    frame=22123 fps=191 q=-0.0 size=N/A time=00:15:22.71 bitrate=N/A speed=7.95x    frame=22223 fps=191 q=-0.0 size=N/A time=00:15:26.88 bitrate=N/A speed=7.95x    frame=22323 fps=191 q=-0.0 size=N/A time=00:15:31.05 bitrate=N/A speed=7.95x    frame=22423 fps=191 q=-0.0 size=N/A time=00:15:35.22 bitrate=N/A speed=7.95x    frame=22522 fps=191 q=-0.0 size=N/A time=00:15:39.35 bitrate=N/A speed=7.95x    frame=22622 fps=191 q=-0.0 size=N/A time=00:15:43.52 bitrate=N/A speed=7.95x    frame=22712 fps=190 q=-0.0 size=N/A time=00:15:47.27 bitrate=N/A speed=7.95x    frame=22818 fps=191 q=-0.0 size=N/A time=00:15:51.70 bitrate=N/A speed=7.95x    frame=22916 fps=191 q=-0.0 size=N/A time=00:15:55.78 bitrate=N/A speed=7.95x    frame=23017 fps=191 q=-0.0 size=N/A time=00:16:00.00 bitrate=N/A speed=7.95x    frame=23117 fps=191 q=-0.0 size=N/A time=00:16:04.17 bitrate=N/A speed=7.95x    frame=23212 fps=191 q=-0.0 size=N/A time=00:16:08.13 bitrate=N/A speed=7.95x    frame=23309 fps=191 q=-0.0 size=N/A time=00:16:12.17 bitrate=N/A speed=7.95x    frame=23397 fps=190 q=-0.0 size=N/A time=00:16:15.84 bitrate=N/A speed=7.95x    frame=23497 fps=190 q=-0.0 size=N/A time=00:16:20.02 bitrate=N/A speed=7.95x    frame=23596 fps=191 q=-0.0 size=N/A time=00:16:24.14 bitrate=N/A speed=7.95x    frame=23698 fps=191 q=-0.0 size=N/A time=00:16:28.40 bitrate=N/A speed=7.95x    frame=23793 fps=191 q=-0.0 size=N/A time=00:16:32.36 bitrate=N/A speed=7.95x    frame=23886 fps=190 q=-0.0 size=N/A time=00:16:36.24 bitrate=N/A speed=7.94x    frame=23987 fps=190 q=-0.0 size=N/A time=00:16:40.45 bitrate=N/A speed=7.94x    frame=24082 fps=190 q=-0.0 size=N/A time=00:16:44.42 bitrate=N/A speed=7.94x    frame=24176 fps=190 q=-0.0 size=N/A time=00:16:48.34 bitrate=N/A speed=7.94x    frame=24273 fps=190 q=-0.0 size=N/A time=00:16:52.38 bitrate=N/A speed=7.94x    frame=24374 fps=190 q=-0.0 size=N/A time=00:16:56.59 bitrate=N/A speed=7.94x    frame=24476 fps=190 q=-0.0 size=N/A time=00:17:00.85 bitrate=N/A speed=7.94x    frame=24579 fps=191 q=-0.0 size=N/A time=00:17:05.14 bitrate=N/A speed=7.95x    frame=24675 fps=190 q=-0.0 size=N/A time=00:17:09.15 bitrate=N/A speed=7.95x    frame=24771 fps=190 q=-0.0 size=N/A time=00:17:13.15 bitrate=N/A speed=7.94x    frame=24873 fps=191 q=-0.0 size=N/A time=00:17:17.41 bitrate=N/A speed=7.95x    frame=24973 fps=191 q=-0.0 size=N/A time=00:17:21.58 bitrate=N/A speed=7.95x    frame=25071 fps=191 q=-0.0 size=N/A time=00:17:25.66 bitrate=N/A speed=7.95x    frame=25162 fps=190 q=-0.0 size=N/A time=00:17:29.46 bitrate=N/A speed=7.94x    frame=25269 fps=191 q=-0.0 size=N/A time=00:17:33.92 bitrate=N/A speed=7.95x    frame=25370 fps=191 q=-0.0 size=N/A time=00:17:38.14 bitrate=N/A speed=7.95x    frame=25466 fps=191 q=-0.0 size=N/A time=00:17:42.14 bitrate=N/A speed=7.95x    frame=25564 fps=191 q=-0.0 size=N/A time=00:17:46.23 bitrate=N/A speed=7.95x    frame=25660 fps=191 q=-0.0 size=N/A time=00:17:50.23 bitrate=N/A speed=7.95x    frame=25758 fps=191 q=-0.0 size=N/A time=00:17:54.32 bitrate=N/A speed=7.95x    frame=25854 fps=191 q=-0.0 size=N/A time=00:17:58.32 bitrate=N/A speed=7.95x    frame=25955 fps=191 q=-0.0 size=N/A time=00:18:02.53 bitrate=N/A speed=7.95x    frame=26042 fps=190 q=-0.0 size=N/A time=00:18:06.16 bitrate=N/A speed=7.94x    frame=26144 fps=190 q=-0.0 size=N/A time=00:18:10.42 bitrate=N/A speed=7.94x    frame=26244 fps=190 q=-0.0 size=N/A time=00:18:14.59 bitrate=N/A speed=7.94x    frame=26346 fps=190 q=-0.0 size=N/A time=00:18:18.84 bitrate=N/A speed=7.95x    frame=26446 fps=191 q=-0.0 size=N/A time=00:18:23.01 bitrate=N/A speed=7.95x    frame=26542 fps=190 q=-0.0 size=N/A time=00:18:27.02 bitrate=N/A speed=7.95x    frame=26642 fps=191 q=-0.0 size=N/A time=00:18:31.19 bitrate=N/A speed=7.95x    frame=26735 fps=190 q=-0.0 size=N/A time=00:18:35.07 bitrate=N/A speed=7.94x    frame=26838 fps=191 q=-0.0 size=N/A time=00:18:39.36 bitrate=N/A speed=7.95x    frame=26932 fps=190 q=-0.0 size=N/A time=00:18:43.28 bitrate=N/A speed=7.94x    frame=27029 fps=190 q=-0.0 size=N/A time=00:18:47.33 bitrate=N/A speed=7.94x    frame=27129 fps=190 q=-0.0 size=N/A time=00:18:51.50 bitrate=N/A speed=7.94x    frame=27228 fps=190 q=-0.0 size=N/A time=00:18:55.63 bitrate=N/A speed=7.94x    frame=27333 fps=191 q=-0.0 size=N/A time=00:19:00.01 bitrate=N/A speed=7.95x    frame=27433 fps=191 q=-0.0 size=N/A time=00:19:04.18 bitrate=N/A speed=7.95x    frame=27520 fps=190 q=-0.0 size=N/A time=00:19:07.81 bitrate=N/A speed=7.94x    frame=27625 fps=191 q=-0.0 size=N/A time=00:19:12.19 bitrate=N/A speed=7.95x    frame=27718 fps=190 q=-0.0 size=N/A time=00:19:16.07 bitrate=N/A speed=7.94x    frame=27806 fps=190 q=-0.0 size=N/A time=00:19:19.74 bitrate=N/A speed=7.94x    frame=27908 fps=190 q=-0.0 size=N/A time=00:19:23.99 bitrate=N/A speed=7.94x    frame=28014 fps=190 q=-0.0 size=N/A time=00:19:28.41 bitrate=N/A speed=7.94x    frame=28107 fps=190 q=-0.0 size=N/A time=00:19:32.29 bitrate=N/A speed=7.94x    frame=28208 fps=190 q=-0.0 size=N/A time=00:19:36.50 bitrate=N/A speed=7.94x    frame=28299 fps=190 q=-0.0 size=N/A time=00:19:40.30 bitrate=N/A speed=7.94x    frame=28405 fps=190 q=-0.0 size=N/A time=00:19:44.72 bitrate=N/A speed=7.94x    frame=28505 fps=190 q=-0.0 size=N/A time=00:19:48.89 bitrate=N/A speed=7.95x    frame=28603 fps=190 q=-0.0 size=N/A time=00:19:52.98 bitrate=N/A speed=7.94x    frame=28698 fps=190 q=-0.0 size=N/A time=00:19:56.94 bitrate=N/A speed=7.94x    frame=28797 fps=190 q=-0.0 size=N/A time=00:20:01.07 bitrate=N/A speed=7.94x    frame=28897 fps=190 q=-0.0 size=N/A time=00:20:05.24 bitrate=N/A speed=7.95x    frame=28998 fps=191 q=-0.0 size=N/A time=00:20:09.45 bitrate=N/A speed=7.95x    frame=29092 fps=190 q=-0.0 size=N/A time=00:20:13.37 bitrate=N/A speed=7.94x    frame=29203 fps=191 q=-0.0 size=N/A time=00:20:18.00 bitrate=N/A speed=7.95x    frame=29295 fps=191 q=-0.0 size=N/A time=00:20:21.84 bitrate=N/A speed=7.95x    frame=29389 fps=190 q=-0.0 size=N/A time=00:20:25.76 bitrate=N/A speed=7.94x    frame=29496 fps=191 q=-0.0 size=N/A time=00:20:30.22 bitrate=N/A speed=7.95x    frame=29590 fps=191 q=-0.0 size=N/A time=00:20:34.14 bitrate=N/A speed=7.95x    frame=29686 fps=191 q=-0.0 size=N/A time=00:20:38.15 bitrate=N/A speed=7.95x    frame=29786 fps=191 q=-0.0 size=N/A time=00:20:42.32 bitrate=N/A speed=7.95x    frame=29884 fps=191 q=-0.0 size=N/A time=00:20:46.41 bitrate=N/A speed=7.95x    frame=29979 fps=190 q=-0.0 size=N/A time=00:20:50.37 bitrate=N/A speed=7.95x    frame=30074 fps=190 q=-0.0 size=N/A time=00:20:54.33 bitrate=N/A speed=7.94x    frame=30175 fps=190 q=-0.0 size=N/A time=00:20:58.54 bitrate=N/A speed=7.94x    frame=30277 fps=191 q=-0.0 size=N/A time=00:21:02.80 bitrate=N/A speed=7.95x    frame=30373 fps=191 q=-0.0 size=N/A time=00:21:06.80 bitrate=N/A speed=7.95x    frame=30466 fps=190 q=-0.0 size=N/A time=00:21:10.68 bitrate=N/A speed=7.94x    frame=30573 fps=191 q=-0.0 size=N/A time=00:21:15.14 bitrate=N/A speed=7.95x    frame=30668 fps=191 q=-0.0 size=N/A time=00:21:19.11 bitrate=N/A speed=7.95x    frame=30769 fps=191 q=-0.0 size=N/A time=00:21:23.32 bitrate=N/A speed=7.95x    frame=30867 fps=191 q=-0.0 size=N/A time=00:21:27.41 bitrate=N/A speed=7.95x    frame=30966 fps=191 q=-0.0 size=N/A time=00:21:31.54 bitrate=N/A speed=7.95x    frame=31066 fps=191 q=-0.0 size=N/A time=00:21:35.71 bitrate=N/A speed=7.95x    frame=31166 fps=191 q=-0.0 size=N/A time=00:21:39.88 bitrate=N/A speed=7.95x    frame=31263 fps=191 q=-0.0 size=N/A time=00:21:43.92 bitrate=N/A speed=7.95x    frame=31361 fps=191 q=-0.0 size=N/A time=00:21:48.01 bitrate=N/A speed=7.95x    frame=31445 fps=190 q=-0.0 size=N/A time=00:21:51.51 bitrate=N/A speed=7.94x    frame=31558 fps=191 q=-0.0 size=N/A time=00:21:56.23 bitrate=N/A speed=7.95x    frame=31656 fps=191 q=-0.0 size=N/A time=00:22:00.31 bitrate=N/A speed=7.95x    frame=31758 fps=191 q=-0.0 size=N/A time=00:22:04.57 bitrate=N/A speed=7.95x    frame=31857 fps=191 q=-0.0 size=N/A time=00:22:08.70 bitrate=N/A speed=7.95x    frame=31957 fps=191 q=-0.0 size=N/A time=00:22:12.87 bitrate=N/A speed=7.95x    frame=32051 fps=191 q=-0.0 size=N/A time=00:22:16.79 bitrate=N/A speed=7.95x    frame=32147 fps=191 q=-0.0 size=N/A time=00:22:20.79 bitrate=N/A speed=7.95x    frame=32241 fps=191 q=-0.0 size=N/A time=00:22:24.71 bitrate=N/A speed=7.95x    frame=32337 fps=190 q=-0.0 size=N/A time=00:22:28.72 bitrate=N/A speed=7.94x    frame=32430 fps=190 q=-0.0 size=N/A time=00:22:32.60 bitrate=N/A speed=7.94x    frame=32526 fps=190 q=-0.0 size=N/A time=00:22:36.60 bitrate=N/A speed=7.94x    frame=32619 fps=190 q=-0.0 size=N/A time=00:22:40.48 bitrate=N/A speed=7.94x    frame=32712 fps=190 q=-0.0 size=N/A time=00:22:44.36 bitrate=N/A speed=7.94x    frame=32812 fps=190 q=-0.0 size=N/A time=00:22:48.53 bitrate=N/A speed=7.94x    frame=32909 fps=190 q=-0.0 size=N/A time=00:22:52.57 bitrate=N/A speed=7.94x    frame=33006 fps=190 q=-0.0 size=N/A time=00:22:56.62 bitrate=N/A speed=7.94x    frame=33103 fps=190 q=-0.0 size=N/A time=00:23:00.67 bitrate=N/A speed=7.94x    frame=33196 fps=190 q=-0.0 size=N/A time=00:23:04.54 bitrate=N/A speed=7.94x    frame=33293 fps=190 q=-0.0 size=N/A time=00:23:08.59 bitrate=N/A speed=7.94x    frame=33389 fps=190 q=-0.0 size=N/A time=00:23:12.59 bitrate=N/A speed=7.94x    frame=33487 fps=190 q=-0.0 size=N/A time=00:23:16.68 bitrate=N/A speed=7.94x    frame=33579 fps=190 q=-0.0 size=N/A time=00:23:20.52 bitrate=N/A speed=7.94x    frame=33677 fps=190 q=-0.0 size=N/A time=00:23:24.61 bitrate=N/A speed=7.94x    frame=33778 fps=190 q=-0.0 size=N/A time=00:23:28.82 bitrate=N/A speed=7.94x    frame=33877 fps=190 q=-0.0 size=N/A time=00:23:32.95 bitrate=N/A speed=7.94x    frame=33980 fps=190 q=-0.0 size=N/A time=00:23:37.24 bitrate=N/A speed=7.94x    [Parsed_ssim_10 @ 000001969061b280] SSIM Y:0.990961 (20.438594) U:0.992033 (20.986914) V:0.992802 (21.427743) All:0.991446 (20.678379)
[out#0/null @ 0000019684ebebc0] video:14630KiB audio:266276KiB subtitle:0KiB other streams:0KiB global headers:0KiB muxing overhead: unknown
frame=34049 fps=190 q=-0.0 Lsize=N/A time=00:23:40.12 bitrate=N/A speed=7.94x    
